<svg xmlns="http://www.w3.org/2000/svg" viewBox="0 0 32 32">
  <defs>
    <linearGradient id="g" x1="0" y1="0" x2="1" y2="1">
      <stop offset="0%" stop-color="#0ff"/>
      <stop offset="100%" stop-color="#a855f7"/>
    </linearGradient>
    <filter id="glow">
      <feGaussianBlur stdDeviation="1" result="blur"/>
      <feMerge><feMergeNode in="blur"/><feMergeNode in="SourceGraphic"/></feMerge>
    </filter>
  </defs>
  <rect width="32" height="32" rx="4" fill="#0a0a0f"/>
  <rect x="1" y="1" width="30" height="30" rx="3" fill="none" stroke="url(#g)" stroke-width="1" opacity="0.5"/>
  <g filter="url(#glow)">
    <path d="M22 14h-5v4h5v3c-1.5 1.2-3.5 2-6 2-5 0-8-3.5-8-8s3-8 8-8c2.5 0 4.5 0.8 6 2.2l-2 2.5C18.8 10.6 17.5 10 16 10c-3 0-5 2.2-5 5s2 5 5 5c0.8 0 1.5-0.1 2-0.3V18h-1v-4z" fill="url(#g)"/>
  </g>
  <line x1="3" y1="29" x2="8" y2="29" stroke="#0ff" stroke-width="0.5" opacity="0.4"/>
  <line x1="24" y1="3" x2="29" y2="3" stroke="#a855f7" stroke-width="0.5" opacity="0.4"/>
</svg>
